<?xml version="1.0" standalone="no"?>
<!DOCTYPE svg PUBLIC "-//W3C//DTD SVG 20010904//EN"
 "http://www.w3.org/TR/2001/REC-SVG-20010904/DTD/svg10.dtd">
<svg version="1.0" xmlns="http://www.w3.org/2000/svg"
 width="128.000000pt" height="128.000000pt" viewBox="0 0 128.000000 128.000000"
 preserveAspectRatio="xMidYMid meet">

<g transform="translate(0.000000,128.000000) scale(0.100000,-0.100000)"
fill="#000000" stroke="none">
<path d="M973 1223 c-7 -2 -13 -13 -13 -24 0 -22 20 -28 104 -31 l59 -3 -79
-61 c-258 -199 -534 -326 -849 -389 -72 -15 -134 -30 -138 -34 -10 -10 2 -41
17 -41 24 0 175 29 253 49 264 68 559 216 766 384 31 26 57 44 57 41 0 -3 -7
-33 -16 -66 -16 -64 -14 -88 10 -88 21 0 26 11 57 133 20 81 25 115 17 124 -7
9 -42 13 -122 12 -61 0 -117 -3 -123 -6z"/>
<path d="M856 834 c-3 -9 -6 -175 -6 -370 l0 -354 -25 0 -25 0 -2 288 -3 287
-155 0 -155 0 -3 -287 -2 -288 -25 0 -25 0 0 194 c0 107 -3 201 -6 210 -5 14
-29 16 -160 16 l-154 0 0 -210 c0 -199 -1 -210 -19 -210 -28 0 -47 -26 -31
-45 19 -23 1141 -23 1160 0 16 19 -3 45 -31 45 -18 0 -19 15 -19 370 l0 370
-154 0 c-131 0 -155 -2 -160 -16z m264 -379 l0 -345 -105 0 -105 0 0 345 0
345 105 0 105 0 0 -345z m-370 -80 l0 -265 -110 0 -110 0 0 265 0 265 110 0
110 0 0 -265z m-380 -80 l0 -185 -105 0 -105 0 0 185 0 185 105 0 105 0 0
-185z"/>
</g>
</svg>
