<?xml version="1.0" standalone="no"?>
<!DOCTYPE svg PUBLIC "-//W3C//DTD SVG 20010904//EN"
 "http://www.w3.org/TR/2001/REC-SVG-20010904/DTD/svg10.dtd">
<svg version="1.0" xmlns="http://www.w3.org/2000/svg"
 width="128.000000pt" height="128.000000pt" viewBox="0 0 128.000000 128.000000"
 preserveAspectRatio="xMidYMid meet">

<g transform="translate(0.000000,128.000000) scale(0.100000,-0.100000)"
fill="#000000" stroke="none">
<path d="M375 1194 c-141 -52 -237 -93 -247 -106 -20 -22 -24 -79 -8 -108 8
-15 3 -22 -38 -42 -83 -41 -82 -37 -82 -463 0 -352 1 -372 20 -403 11 -18 34
-41 52 -52 32 -19 52 -20 528 -20 451 0 498 2 530 18 55 27 72 69 78 183 3 72
8 99 18 99 7 0 22 12 33 26 19 24 21 40 21 154 0 114 -2 130 -21 154 -11 14
-27 26 -35 26 -11 0 -14 16 -14 68 -1 135 -33 202 -105 220 -29 8 -30 11 -35
75 -8 105 -18 111 -190 115 l-139 4 -16 49 c-19 55 -55 89 -94 88 -14 0 -129
-39 -256 -85z m275 -20 c13 -34 15 -31 -25 -44 -49 -16 -65 -44 -65 -112 l0
-58 -176 0 -175 0 -15 36 c-8 20 -12 39 -9 43 9 9 417 159 438 160 10 1 22
-10 27 -25z m348 -166 l3 -48 -180 0 -181 0 0 50 0 50 178 -2 177 -3 3 -47z
m112 -148 c17 -17 20 -33 20 -104 l0 -84 -99 -4 c-87 -3 -103 -7 -139 -31 -78
-51 -106 -162 -62 -247 36 -71 102 -100 228 -100 l72 0 0 -87 c0 -135 53 -123
-530 -123 -372 0 -499 3 -508 12 -9 9 -12 107 -12 382 0 330 2 371 17 388 15
17 44 18 505 18 475 0 489 -1 508 -20z m90 -380 l0 -110 -124 0 c-107 0 -127
3 -148 20 -58 45 -61 129 -7 174 29 25 36 26 155 26 l124 0 0 -110z"/>
<path d="M972 508 c-30 -30 0 -78 37 -58 23 12 27 40 9 58 -15 15 -31 15 -46
0z"/>
</g>
</svg>
